<svg id="visual" viewBox="0 0 960 540" width="960" height="540" xmlns="http://www.w3.org/2000/svg" xmlns:xlink="http://www.w3.org/1999/xlink" version="1.1">
  <path d="M0 120L100 170L200 130L300 160L400 140L500 180L600 150L700 170L800 140L900 160L960 150L960 0L900 0L800 0L700 0L600 0L500 0L400 0L300 0L200 0L100 0L0 0Z" fill="#b0d6ce"></path>
  <path d="M0 200L90 220L190 200L290 220L390 210L490 250L590 240L690 230L790 200L890 210L960 220L960 150L890 160L790 140L690 170L590 150L490 180L390 140L290 160L190 130L90 170L0 120Z" fill="#a0c8c4"></path>
  <path d="M0 270L80 290L180 270L280 300L380 280L480 320L580 310L680 300L780 270L880 290L960 300L960 220L880 210L780 200L680 230L580 240L480 250L380 210L280 220L180 200L80 220L0 200Z" fill="#91b8b5"></path>
  <path d="M0 360L70 380L170 360L270 380L370 370L470 410L570 400L670 390L770 360L870 380L960 410L960 300L870 290L770 270L670 300L570 310L470 320L370 280L270 300L170 270L70 290L0 270Z" fill="#5a81a3"></path>
  <path d="M0 540L60 540L160 540L260 540L360 540L460 540L560 540L660 540L760 540L860 540L960 540L960 410L860 380L760 360L660 390L560 400L460 410L360 370L260 380L160 360L60 380L0 360Z" fill="#354e6c"></path>
</svg>
