<svg id="visual" viewBox="0 0 960 540" width="960" height="540" xmlns="http://www.w3.org/2000/svg" xmlns:xlink="http://www.w3.org/1999/xlink" version="1.1">
  <path d="M0 120L100 170L200 130L300 160L400 140L500 180L600 150L700 170L800 140L900 160L960 150L960 0L0 0Z" fill="#18122B"></path>
  <path d="M0 200L90 220L190 200L290 220L390 210L490 250L590 240L690 230L790 200L890 210L960 220L960 150L0 120Z" fill="#393053"></path>
  <path d="M0 270L80 290L180 270L280 300L380 280L480 320L580 310L680 300L780 270L880 290L960 300L960 220L0 200Z" fill="#443C68"></path>
  <path d="M0 360L70 380L170 360L270 380L370 370L470 410L570 400L670 390L770 360L870 380L960 410L960 300L0 270Z" fill="#635985"></path>
  <path d="M0 540L960 540L960 410L0 360Z" fill="#432E54"></path>
</svg>
